# WaveFront *.obj file (generated by CINEMA 4D)

mtllib ./Francine_test.mtl

v -387.17132568359375 -100 20.8963623046875
v -387.17132568359375 100 20.8963623046875
v -187.17132568359375 -100 20.8963623046875
v -187.17132568359375 100 20.8963623046875
v -187.17132568359375 -100 -20.8963623046875
v -187.17132568359375 100 -20.8963623046875
v -387.17132568359375 -100 -20.8963623046875
v -387.17132568359375 100 -20.8963623046875
# 8 vertices

vn 0 0 1
vn 1 0 0
vn 0 0 -1
vn -1 0 0
vn 0 1 0
vn 0 -1 0
# 6 normals

vt 0 0 0
vt 0 1 0
vt 1 1 0
vt 1 0 0
# 4 texture coordinates

o Cube.1
usemtl Mat
f 3/4/1 4/3/1 2/2/1 1/1/1
f 5/4/2 6/3/2 4/2/2 3/1/2
f 7/4/3 8/3/3 6/2/3 5/1/3
f 1/4/4 2/3/4 8/2/4 7/1/4
f 4/4/5 6/3/5 8/2/5 2/1/5
f 5/4/6 3/3/6 1/2/6 7/1/6

v -168.70233154296875 -100 20.8963623046875
v -168.70233154296875 100 20.8963623046875
v 31.29767417907715 -100 20.8963623046875
v 31.29767417907715 100 20.8963623046875
v 31.29767417907715 -100 -20.8963623046875
v 31.29767417907715 100 -20.8963623046875
v -168.70233154296875 -100 -20.8963623046875
v -168.70233154296875 100 -20.8963623046875
# 8 vertices

# 0 normal

# 0 texture coordinate

o Cube
usemtl Mat_1
f 11/4/1 12/3/1 10/2/1 9/1/1
f 13/4/2 14/3/2 12/2/2 11/1/2
f 15/4/3 16/3/3 14/2/3 13/1/3
f 9/4/4 10/3/4 16/2/4 15/1/4
f 12/4/5 14/3/5 16/2/5 10/1/5
f 13/4/6 11/3/6 9/2/6 15/1/6

